<?xml version="1.0" standalone="no"?>
<!DOCTYPE svg PUBLIC "-//W3C//DTD SVG 20010904//EN"
 "http://www.w3.org/TR/2001/REC-SVG-20010904/DTD/svg10.dtd">
<svg version="1.0" xmlns="http://www.w3.org/2000/svg"
 width="980.000000pt" height="980.000000pt" viewBox="0 0 980.000000 980.000000"
 preserveAspectRatio="xMidYMid meet">

<g transform="translate(0.000000,980.000000) scale(0.100000,-0.100000)"
fill="#000000" stroke="none">
<path d="M8986 7525 c-12 -18 -23 -24 -35 -20 -16 5 -17 -1 -13 -51 l5 -56
-102 4 c-55 2 -101 1 -101 -2 0 -4 10 -16 23 -28 28 -26 77 -29 113 -6 24 16
26 16 42 -7 24 -33 22 -40 -18 -63 -25 -15 -53 -21 -97 -21 -69 0 -73 -4 -12
-15 52 -10 104 4 136 36 20 20 23 30 17 57 -6 28 -5 30 10 18 9 -7 16 -21 16
-30 0 -17 54 -79 85 -97 18 -10 12 -20 -70 -115 -50 -57 -120 -140 -156 -184
l-66 -80 49 -105 c203 -432 319 -842 395 -1400 24 -175 24 -673 0 -890 -61
-546 -202 -1031 -439 -1504 -609 -1218 -1777 -2090 -3113 -2326 -165 -29 -344
-50 -495 -56 -74 -4 -140 -9 -147 -13 -6 -3 -34 -35 -62 -70 -28 -35 -51 -62
-51 -60 0 2 9 32 19 67 l19 62 -70 0 c-52 0 -69 -3 -65 -12 2 -7 14 -47 27
-89 21 -73 21 -78 5 -103 -10 -14 -20 -26 -24 -26 -4 0 -24 51 -45 112 -22 62
-42 116 -45 119 -3 4 -55 10 -116 13 l-110 7 3 -104 c7 -207 -59 -341 -201
-412 -28 -14 -47 -25 -41 -25 5 0 65 -7 134 -15 180 -22 649 -31 850 -16 601
44 1184 192 1688 427 52 24 96 44 98 44 8 0 307 162 381 206 438 263 846 604
1182 989 887 1015 1317 2358 1181 3685 -5 52 -12 122 -16 155 -11 117 -55 353
-99 531 -89 362 -203 671 -372 1012 l-106 212 -49 0 c-96 0 -153 56 -153 151
0 37 6 65 18 83 10 15 17 30 14 32 -2 3 -12 -7 -21 -21z m-151 -145 c-3 -5
-15 -10 -26 -10 -10 0 -19 5 -19 10 0 6 12 10 26 10 14 0 23 -4 19 -10z"/>
<path d="M8756 7488 l-17 -23 52 -3 c58 -4 68 2 53 26 -17 27 -69 27 -88 0z
m59 2 c3 -6 -1 -13 -10 -16 -19 -8 -30 0 -20 15 8 14 22 14 30 1z"/>
<path d="M9070 7397 c0 -17 32 -47 49 -47 8 0 7 9 -4 30 -16 30 -45 41 -45 17z"/>
<path d="M8650 7351 c0 -6 4 -13 10 -16 6 -3 7 1 4 9 -7 18 -14 21 -14 7z"/>
<path d="M7380 5219 c-158 -191 -265 -315 -268 -310 -1 4 9 35 23 71 14 35 25
83 25 107 0 24 4 43 10 43 14 0 35 79 24 90 -5 5 -36 -61 -78 -170 l-68 -179
1 -283 c2 -436 -14 -872 -34 -937 -41 -135 -241 -245 -467 -258 l-98 -6 0 254
c0 140 -3 298 -7 352 l-6 98 -46 -52 c-25 -29 -71 -83 -101 -120 -30 -37 -121
-145 -202 -240 -422 -501 -516 -612 -591 -703 -45 -54 -102 -122 -127 -151
-25 -29 -82 -97 -126 -151 -45 -55 -129 -155 -186 -224 l-105 -125 46 -7 c80
-11 727 -9 804 3 186 29 364 131 475 272 79 100 94 131 103 212 11 100 50 175
131 251 151 140 372 190 523 119 l55 -27 63 45 c173 125 254 277 277 519 7 72
10 381 8 843 l-3 731 -55 -67z"/>
<path d="M7118 5253 c12 -2 32 -2 45 0 12 2 2 4 -23 4 -25 0 -35 -2 -22 -4z"/>
<path d="M7064 5205 c-14 -34 -19 -74 -8 -63 8 9 34 98 28 98 -3 0 -12 -16
-20 -35z"/>
<path d="M7041 5114 c0 -11 3 -14 6 -6 3 7 2 16 -1 19 -3 4 -6 -2 -5 -13z"/>
<path d="M3605 720 c-17 -21 -62 -75 -101 -121 -171 -201 -244 -290 -244 -297
0 -14 477 -162 521 -162 6 0 -5 19 -24 42 -125 155 -128 349 -7 496 16 20 28
37 27 38 -1 1 -34 11 -72 21 l-70 20 -30 -37z"/>
<path d="M4070 611 c-20 -77 17 -155 89 -187 35 -15 38 -19 31 -43 -25 -87
-79 -149 -120 -136 -32 10 -41 38 -49 170 -9 139 -21 167 -76 191 -19 8 -50
14 -70 14 -34 0 -35 -1 -35 -40 0 -40 0 -40 40 -40 27 0 42 -5 48 -17 5 -10
12 -68 14 -129 7 -137 29 -197 82 -219 101 -42 192 22 236 164 l18 56 51 3 52
3 -3 37 c-3 36 -4 37 -45 40 l-43 3 0 57 c0 31 -4 62 -8 68 -4 6 -41 16 -82
23 -41 7 -85 15 -97 18 -18 4 -23 -1 -33 -36z m130 -10 c10 -20 14 -111 4
-111 -34 0 -69 63 -58 106 7 29 39 32 54 5z"/>
</g>
</svg>
